# xmcd CD database file
#
# Track frame offsets:
#	150
#	25612
#	46700
#	66335
#	88770
#	107125
#	123267
#	136490
#	159370
#	176052
#	195062
#	217737
#	233935
#	254877
#
# Disc length: 3697 seconds
#
# Revision: 0
# Processed by: cddbd v1.5PL3 Copyright (c) Steve Scherf et al.
# Submitted via: CDex 1.50
#
DISCID=b90e6f0e
DTITLE=RAZZ MA TAZZ - Best Season Collection -Spring-Summer-
DYEAR=1900
DGENRE=New Age
TTITLE0=COSMOS
TTITLE1=It's Love
TTITLE2=Bye-by April Afternoon
TTITLE3=君が生まれた街
TTITLE4=あじさい
TTITLE5=紙ヒコーキ
TTITLE6=天気雨
TTITLE7=Sentimental Soda
TTITLE8=素敵な君
TTITLE9=Like a Tyyphoon -エンゼルフィッシュの休暇-
TTITLE10=MERMAID
TTITLE11=SUMMER CLAP
TTITLE12=FRUiTS
TTITLE13=LILAC
EXTD=
EXTT0=
EXTT1=
EXTT2=
EXTT3=
EXTT4=
EXTT5=
EXTT6=
EXTT7=
EXTT8=
EXTT9=
EXTT10=
EXTT11=
EXTT12=
EXTT13=
PLAYORDER=
